<svg width="344" height="344" viewBox="0 0 344 344" fill="none" xmlns="http://www.w3.org/2000/svg">
<path d="M203.425 31.9792L206.063 33.8024L209.245 33.4138L247.166 28.784L264.896 62.6217L266.385 65.4618L269.383 66.5968L305.112 80.1197L305.086 118.321L305.084 121.528L307.212 123.926L332.563 152.504L314.788 186.318L313.296 189.156L314.065 192.269L323.232 229.355L291.778 251.035L289.138 252.855L288.373 255.968L279.255 293.066L241.329 297.646L238.146 298.03L236.021 300.432L210.708 329.043L174.997 315.473L172 314.334L169.003 315.473L133.292 329.043L107.979 300.432L105.854 298.03L102.671 297.646L64.7448 293.066L55.6271 255.968L54.8618 252.855L52.2217 251.035L20.7679 229.355L29.9348 192.269L30.7042 189.156L29.2122 186.318L11.4366 152.504L36.788 123.926L38.9158 121.528L38.9137 118.321L38.8884 80.1197L74.6166 66.5968L77.6154 65.4618L79.1036 62.6217L96.8344 28.784L134.755 33.4138L137.937 33.8024L140.575 31.9792L172 10.2573L203.425 31.9792Z" stroke="#FFDC00" stroke-width="16.8755"/>
<path d="M195.862 64.5899L198.094 66.1326L200.787 65.8038L229.581 62.2882L243.045 87.9824L244.304 90.3855L246.842 91.3459L273.971 101.614L273.952 130.622L273.95 133.335L275.751 135.365L295.001 157.065L281.503 182.741L280.241 185.143L280.892 187.776L287.853 215.937L263.969 232.399L261.735 233.939L261.087 236.574L254.164 264.743L225.365 268.221L222.672 268.546L220.874 270.578L201.653 292.304L174.536 281.999L172 281.035L169.464 281.999L142.348 292.304L123.127 270.578L121.329 268.546L118.635 268.221L89.8367 264.743L82.9133 236.574L82.2658 233.939L80.0319 232.399L56.148 215.937L63.1087 187.776L63.7597 185.143L62.4973 182.741L48.9996 157.065L68.2498 135.365L70.0503 133.335L70.0485 130.622L70.0293 101.614L97.1589 91.3459L99.6964 90.3855L100.956 87.9824L114.419 62.2882L143.213 65.8038L145.906 66.1326L148.138 64.5899L172 48.0958L195.862 64.5899Z" stroke="#FFDC00" stroke-width="14.2792"/>
<path d="M187.813 97.2483L190.045 98.791L192.738 98.4622L211.819 96.1325L220.74 113.159L222 115.562L224.537 116.523L242.515 123.327L242.502 142.55L242.501 145.263L244.301 147.292L257.057 161.672L248.113 178.687L246.851 181.088L247.502 183.722L252.114 202.383L236.287 213.292L234.053 214.832L233.406 217.467L228.818 236.134L209.734 238.438L207.04 238.763L205.243 240.795L192.505 255.192L174.536 248.364L172 247.4L169.464 248.364L151.495 255.192L138.758 240.795L136.96 238.763L134.267 238.438L115.183 236.134L110.595 217.467L109.947 214.832L107.713 213.292L91.8863 202.383L96.499 183.722L97.15 181.088L95.8876 178.687L86.9431 161.672L99.6995 147.292L101.5 145.263L101.498 142.55L101.485 123.327L119.463 116.523L122.001 115.562L123.26 113.159L132.182 96.1325L151.263 98.4622L153.956 98.791L156.188 97.2483L172 86.3182L187.813 97.2483Z" stroke="#FFDC00" stroke-width="14.2792"/>
<path d="M180.518 126.845L182.75 128.388L185.443 128.059L195.721 126.804L200.527 135.976L201.786 138.379L204.324 139.339L214.008 143.005L214.001 153.359L213.999 156.072L215.799 158.102L222.671 165.848L217.853 175.013L216.59 177.415L217.241 180.048L219.726 190.1L211.201 195.977L208.967 197.517L208.319 200.151L205.848 210.206L195.568 211.448L192.874 211.773L191.077 213.805L184.215 221.56L174.536 217.882L172 216.918L169.464 217.882L159.785 221.56L152.923 213.805L151.126 211.773L148.432 211.448L138.152 210.206L135.681 200.151L135.033 197.517L132.8 195.977L124.274 190.1L126.759 180.048L127.41 177.415L126.147 175.013L121.329 165.848L128.201 158.102L130.001 156.072L129.999 153.359L129.993 143.005L139.677 139.339L142.214 138.379L143.473 135.976L148.279 126.804L158.557 128.059L161.251 128.388L163.482 126.845L172 120.957L180.518 126.845Z" stroke="#FFDC00" stroke-width="14.2792"/>
</svg>
