<?xml version="1.0" standalone="no"?>
<!DOCTYPE svg PUBLIC "-//W3C//DTD SVG 20010904//EN"
 "http://www.w3.org/TR/2001/REC-SVG-20010904/DTD/svg10.dtd">
<svg version="1.0" xmlns="http://www.w3.org/2000/svg"
 width="700.000000pt" height="700.000000pt" viewBox="0 0 700.000000 700.000000"
 preserveAspectRatio="xMidYMid meet">
<metadata>
Created by potrace 1.11, written by Peter Selinger 2001-2013
</metadata>
<g transform="translate(0.000000,700.000000) scale(0.100000,-0.100000)"
fill="#000000" stroke="none">
<path d="M3130 6744 c-318 -221 -369 -253 -395 -249 -16 2 -59 7 -95 10 -36 3
-76 8 -90 10 -14 3 -43 7 -65 10 -22 2 -56 6 -75 9 -19 2 -60 7 -90 11 -30 3
-71 8 -90 10 -83 10 -288 35 -322 40 -35 4 -38 2 -57 -38 -11 -23 -88 -170
-171 -327 -82 -157 -166 -317 -186 -355 l-37 -70 -136 -52 c-217 -82 -581
-220 -643 -243 l-58 -21 0 -447 c-1 -336 -4 -451 -13 -463 -7 -9 -42 -49 -78
-90 -257 -287 -492 -555 -496 -566 -3 -6 6 -31 20 -55 14 -24 52 -95 84 -158
33 -63 80 -153 105 -200 199 -376 199 -376 192 -416 -3 -22 -10 -47 -15 -56
-5 -10 -7 -18 -5 -18 3 0 1 -11 -4 -25 -5 -14 -12 -36 -14 -49 -2 -13 -41
-172 -86 -355 -45 -183 -81 -333 -79 -335 2 -2 51 -35 109 -75 58 -40 222
-153 365 -251 l260 -179 40 -158 c21 -87 40 -162 41 -168 1 -5 25 -104 53
-220 28 -115 56 -232 63 -260 6 -27 14 -53 18 -58 3 -4 62 -14 131 -22 68 -9
140 -17 159 -20 91 -11 119 -15 175 -21 33 -3 68 -8 78 -10 10 -2 45 -6 78 -9
33 -4 68 -8 77 -10 9 -1 51 -6 92 -10 41 -4 82 -10 91 -14 8 -3 67 -64 129
-136 63 -71 134 -153 159 -180 25 -28 62 -69 81 -91 107 -121 188 -212 210
-236 l25 -26 417 159 418 159 252 -95 c139 -53 262 -100 273 -104 11 -5 85
-34 165 -64 l145 -55 30 32 c60 65 177 197 399 450 34 39 80 90 103 115 24 26
43 49 43 54 0 13 41 24 113 31 37 4 77 9 87 11 10 2 47 6 82 9 35 4 74 8 88
10 14 3 52 7 85 11 33 3 74 8 90 10 28 4 127 16 250 31 95 11 107 13 113 18 6
6 53 196 158 629 l58 237 156 107 c182 125 573 395 579 399 2 2 -37 169 -88
371 -50 202 -93 377 -95 388 -2 11 -10 41 -16 67 l-12 46 83 159 c45 87 99
190 119 228 20 39 63 120 95 180 32 61 71 133 86 161 29 52 36 80 21 86 -7 3
-92 97 -406 452 -34 38 -68 77 -76 85 -8 9 -34 38 -57 65 l-43 49 0 448 0 448
-52 19 c-500 188 -775 295 -785 305 -6 7 -39 66 -74 132 -35 66 -93 179 -131
250 -37 72 -100 192 -140 268 l-72 137 -38 -5 c-21 -3 -57 -7 -80 -10 -24 -3
-59 -7 -78 -10 -19 -3 -53 -7 -75 -9 -39 -5 -91 -12 -165 -21 -19 -3 -60 -7
-90 -10 -30 -3 -66 -7 -80 -10 -14 -2 -52 -7 -85 -10 -33 -3 -91 -10 -129 -16
l-68 -9 -199 137 c-109 76 -275 191 -369 256 -93 64 -171 117 -172 116 -2 0
-167 -115 -368 -255z m560 -292 c96 -67 180 -125 185 -129 6 -4 28 -20 50 -35
22 -14 82 -55 134 -91 62 -43 101 -64 115 -61 12 2 41 6 66 9 25 3 61 7 80 10
19 2 58 7 85 10 60 7 197 24 245 31 19 2 58 7 85 10 28 2 66 6 85 9 113 16
114 16 125 -8 6 -12 44 -85 84 -162 41 -77 110 -210 154 -295 125 -240 94
-211 307 -291 102 -38 194 -74 205 -79 11 -5 92 -36 180 -69 l160 -59 1 -395
0 -395 69 -79 c39 -43 72 -80 75 -83 3 -3 37 -41 75 -85 39 -44 79 -89 90
-101 11 -11 34 -36 50 -55 17 -19 60 -69 97 -110 l67 -76 -40 -79 c-23 -43
-64 -122 -91 -174 -28 -52 -84 -160 -126 -240 -42 -80 -83 -158 -93 -173 -13
-22 -15 -37 -8 -65 5 -20 47 -192 94 -382 l85 -345 -23 -21 c-12 -12 -67 -52
-122 -89 -55 -37 -191 -131 -302 -208 l-201 -139 -92 -377 c-51 -207 -95 -379
-99 -383 -6 -6 -41 -11 -226 -33 -27 -3 -66 -7 -85 -10 -19 -2 -71 -9 -115
-14 -44 -6 -105 -13 -135 -16 -30 -3 -66 -7 -80 -10 -14 -3 -50 -7 -80 -10
-60 -6 -61 -6 -200 -166 -30 -34 -73 -83 -96 -108 -22 -25 -96 -108 -163 -184
-87 -98 -128 -137 -140 -134 -9 3 -142 54 -296 112 -154 59 -308 118 -343 131
-34 13 -66 25 -70 28 -5 3 -85 -24 -178 -60 -510 -194 -576 -217 -582 -207 -4
6 -36 43 -72 83 -36 40 -73 81 -82 92 -215 247 -363 408 -376 409 -17 0 -35 3
-117 13 -22 3 -58 8 -80 10 -154 19 -305 37 -335 41 -19 3 -55 7 -80 9 -83 9
-144 17 -151 22 -4 2 -10 21 -14 41 -5 21 -9 43 -11 48 -1 6 -39 159 -84 342
l-82 332 -324 223 c-321 221 -324 223 -318 253 3 17 17 75 31 130 13 55 53
215 87 355 l63 255 -58 110 c-32 60 -114 216 -182 345 -87 164 -122 240 -116
250 4 8 21 30 37 47 16 18 61 68 99 110 39 43 85 96 104 118 19 21 41 46 49
55 17 18 51 56 154 173 l70 79 0 395 1 395 65 24 c63 24 99 37 320 122 58 22
157 59 220 83 63 23 120 47 127 52 7 5 33 50 59 100 26 51 66 128 89 172 23
44 80 152 125 240 46 88 87 166 93 173 7 9 23 11 51 7 59 -9 84 -13 151 -20
67 -7 95 -11 205 -25 89 -11 176 -21 210 -25 14 -2 52 -6 85 -11 33 -4 67 -8
75 -8 14 0 105 61 508 341 81 57 152 101 157 99 6 -2 89 -58 185 -124z"/>
<path d="M3233 6013 c-264 -182 -317 -216 -324 -208 -3 2 -99 15 -214 30 -116
14 -226 28 -245 30 -19 3 -60 7 -90 10 -30 3 -67 8 -81 10 -33 6 -32 7 -111
-145 -120 -229 -211 -405 -228 -434 -14 -26 -51 -42 -335 -150 l-320 -122 -3
-348 c-2 -260 -5 -351 -15 -360 -15 -16 -103 -115 -295 -331 l-151 -170 61
-115 c75 -142 151 -286 213 -406 l48 -90 -82 -333 c-49 -197 -79 -337 -74
-342 5 -5 133 -94 284 -198 l274 -188 27 -109 c15 -60 30 -118 32 -129 11 -51
107 -429 110 -433 2 -2 24 -5 48 -7 23 -2 57 -6 73 -9 17 -3 73 -10 125 -16
52 -6 147 -17 210 -25 63 -8 139 -17 169 -20 62 -7 50 3 211 -180 57 -66 110
-126 117 -133 7 -7 52 -58 99 -112 l86 -99 82 31 c44 16 99 37 121 45 54 19
165 62 190 73 50 22 251 93 260 93 5 -1 129 -47 275 -103 146 -56 288 -110
317 -120 l51 -18 28 31 c85 98 211 241 244 277 8 9 44 50 80 91 107 122 100
117 160 124 30 3 66 8 80 10 14 3 50 7 80 10 91 9 144 15 170 20 14 2 52 7 85
10 175 18 214 25 219 43 5 20 106 428 112 457 2 11 14 60 27 109 l22 89 130
89 c72 49 189 130 260 179 72 49 140 97 153 107 l23 18 -82 334 -82 334 37 70
c20 39 58 112 84 161 26 50 82 155 124 236 l77 145 -37 41 c-49 54 -77 85
-207 233 -61 69 -123 138 -139 155 -15 16 -39 44 -52 61 l-24 31 -2 343 -3
344 -75 28 c-41 16 -84 32 -95 37 -11 6 -121 48 -245 94 -196 74 -227 88 -240
113 -22 39 -169 321 -244 466 -59 113 -62 116 -91 113 -16 -2 -57 -6 -90 -10
-33 -3 -71 -8 -85 -10 -26 -4 -91 -12 -150 -19 -101 -11 -158 -18 -180 -22
-14 -2 -55 -7 -91 -10 l-67 -7 -73 52 c-41 29 -167 117 -281 196 l-207 143
-268 -185z m413 -269 c76 -53 187 -130 247 -171 59 -41 111 -72 115 -70 4 3
38 8 75 12 37 3 76 8 85 10 9 1 44 6 77 9 62 7 132 15 175 21 14 2 52 7 85 11
33 3 62 8 65 9 10 6 26 -9 41 -40 19 -37 170 -325 220 -420 l38 -70 278 -106
278 -106 5 -304 5 -304 31 -35 c17 -19 55 -62 84 -95 87 -99 192 -216 237
-265 l41 -45 -42 -80 c-23 -44 -86 -164 -140 -268 l-98 -187 17 -67 c9 -37 19
-75 21 -85 8 -34 12 -54 60 -242 39 -156 45 -190 33 -197 -8 -5 -72 -49 -144
-98 -71 -50 -174 -120 -228 -157 -55 -37 -103 -77 -108 -88 -9 -21 -107 -409
-115 -456 -3 -14 -11 -45 -18 -70 l-13 -45 -94 -12 c-90 -11 -163 -20 -239
-28 -92 -11 -147 -17 -165 -20 -11 -2 -35 -4 -53 -4 -38 -1 -43 -6 -271 -265
-90 -102 -169 -186 -175 -186 -7 0 -66 21 -131 46 -66 25 -131 50 -145 54 -14
5 -79 29 -145 55 -66 25 -127 47 -135 47 -8 1 -55 -15 -105 -34 -201 -80 -438
-168 -450 -168 -7 0 -37 28 -66 62 -30 34 -59 66 -64 72 -6 6 -60 67 -120 136
-61 69 -119 135 -130 148 -22 24 -38 29 -125 37 -31 3 -64 7 -75 9 -11 2 -49
7 -85 11 -36 3 -76 8 -90 10 -14 2 -50 7 -80 10 -30 3 -80 9 -110 13 l-54 7
-48 190 c-26 105 -50 201 -53 215 -3 14 -14 59 -24 100 l-18 75 -121 85 c-67
47 -178 123 -246 170 -69 47 -125 89 -126 93 0 4 21 90 46 190 25 100 48 193
50 207 3 14 8 34 11 45 4 11 8 27 9 35 2 8 8 34 15 57 12 46 32 2 -204 453
-27 52 -53 100 -58 106 -9 11 21 49 230 284 42 47 78 87 81 90 3 3 21 22 40
43 l35 38 5 306 5 306 278 106 279 106 40 75 c21 41 77 147 123 235 113 218
118 225 135 220 8 -2 38 -6 65 -10 28 -3 66 -8 85 -10 63 -8 284 -34 340 -40
30 -4 61 -8 68 -10 12 -4 55 23 269 172 207 143 237 163 243 163 4 0 69 -43
146 -96z"/>
<path d="M3295 5280 c-219 -152 -197 -143 -315 -125 -14 2 -47 6 -75 10 -27 3
-104 12 -169 20 -65 8 -123 12 -128 9 -5 -3 -22 -31 -37 -62 -16 -32 -47 -93
-71 -137 -23 -44 -60 -114 -81 -155 l-40 -75 -227 -86 -227 -86 -3 -248 -2
-247 -82 -92 c-44 -50 -113 -126 -152 -170 -39 -43 -75 -86 -80 -96 -8 -18 -1
-34 161 -338 l55 -103 -56 -232 c-31 -128 -56 -236 -56 -242 0 -5 36 -35 80
-65 44 -30 134 -92 199 -137 l118 -82 17 -63 c8 -35 34 -139 57 -233 23 -93
44 -173 48 -177 3 -3 51 -12 106 -18 95 -11 122 -14 198 -24 58 -8 152 -19
165 -19 7 0 43 -34 80 -75 37 -41 72 -80 77 -86 6 -6 39 -44 75 -85 97 -111
107 -121 115 -121 7 0 278 101 353 131 12 5 32 13 45 18 12 5 30 12 40 15 10
3 117 -32 248 -81 l230 -87 25 29 c14 17 51 59 82 94 31 36 77 87 102 115 105
120 125 136 166 138 22 0 44 2 49 3 6 1 39 5 75 9 36 5 72 10 80 11 8 2 47 6
85 10 149 15 147 14 162 70 7 28 15 59 17 70 13 60 77 318 85 337 6 15 84 75
205 158 108 74 196 139 196 145 0 5 -25 114 -56 241 l-57 231 63 119 c34 66
84 160 111 210 27 50 49 96 49 102 0 10 -41 57 -249 291 l-66 73 -5 251 -5
250 -227 86 -228 86 -106 205 c-59 113 -111 211 -117 218 -7 9 -23 11 -46 8
-20 -3 -56 -8 -81 -11 -25 -3 -61 -7 -80 -10 -19 -3 -62 -7 -95 -11 -33 -3
-82 -10 -110 -14 -27 -4 -59 -7 -70 -5 -11 1 -109 63 -217 138 -109 76 -199
137 -200 136 -2 0 -93 -63 -203 -139z m375 -330 l159 -111 58 6 c32 4 69 8 83
10 14 3 45 7 70 10 25 3 77 9 115 14 39 5 71 8 72 6 4 -2 93 -170 144 -272
l42 -81 141 -52 c78 -29 162 -62 189 -73 l47 -19 0 -202 0 -201 43 -46 c63
-70 161 -180 193 -218 l28 -33 -43 -82 c-23 -44 -65 -125 -92 -178 l-50 -96
36 -144 c68 -271 70 -236 -17 -296 -40 -28 -114 -79 -163 -113 l-91 -63 -47
-196 c-39 -157 -51 -196 -65 -196 -31 -1 -157 -15 -172 -19 -8 -2 -42 -7 -75
-10 -127 -12 -132 -14 -176 -63 -22 -26 -69 -78 -103 -117 -35 -38 -76 -85
-92 -103 l-29 -33 -189 72 -190 71 -50 -21 c-28 -11 -112 -43 -186 -71 l-135
-51 -33 38 c-218 246 -233 262 -267 267 -16 2 -59 7 -95 11 -36 4 -78 9 -95
11 -16 2 -54 6 -84 10 -30 3 -61 7 -69 8 -16 3 -30 24 -35 52 -2 11 -21 91
-42 179 -38 155 -40 162 -75 186 -19 14 -91 63 -159 110 -68 46 -126 90 -128
96 -3 7 16 97 42 200 l46 188 -90 171 c-50 94 -91 176 -91 181 0 6 10 21 23
35 34 38 106 118 172 193 l60 68 5 205 5 204 185 70 186 70 37 71 c21 40 63
120 94 179 48 93 58 107 77 103 11 -2 64 -9 116 -15 52 -6 106 -13 120 -15 14
-2 52 -6 85 -9 l60 -6 155 110 c85 60 161 109 168 109 7 1 85 -49 172 -109z"/>
<path d="M3365 4623 l-120 -84 -55 6 c-30 3 -71 8 -90 11 -19 2 -65 8 -101 12
l-66 8 -69 -137 -69 -136 -55 -21 c-30 -11 -95 -36 -145 -55 l-90 -34 -5 -160
-5 -161 -66 -73 c-139 -156 -142 -161 -120 -184 19 -21 130 -247 126 -258 -10
-29 -65 -264 -65 -278 0 -8 55 -52 124 -100 l125 -84 28 -110 c15 -60 28 -112
28 -115 1 -3 5 -22 9 -42 5 -25 14 -38 25 -39 9 0 23 -2 31 -3 17 -4 101 -14
170 -22 101 -11 85 1 223 -159 34 -38 64 -74 67 -78 4 -4 73 17 154 48 l148
56 144 -56 144 -55 34 37 c19 21 65 73 102 116 37 43 77 80 89 82 18 4 54 8
172 20 43 5 118 16 120 19 1 1 4 13 6 26 3 14 19 81 37 150 l32 125 124 84
c68 47 124 91 124 98 0 13 -56 256 -65 280 -4 11 19 58 106 222 16 30 29 59
29 66 0 7 -12 25 -27 41 -16 16 -59 65 -98 107 l-70 78 -5 161 -5 160 -138 52
c-76 29 -141 57 -146 62 -5 5 -35 59 -66 119 -71 135 -84 157 -93 151 -4 -2
-34 -7 -67 -10 -33 -4 -98 -12 -143 -17 l-84 -11 -126 86 c-70 47 -132 86
-137 85 -6 0 -64 -39 -130 -86z m225 -324 l85 -60 60 6 c33 3 85 8 115 11 l55
5 39 -80 c22 -43 47 -88 55 -99 9 -10 60 -36 114 -56 l97 -38 0 -111 0 -112
70 -75 c38 -41 69 -79 70 -84 0 -5 -22 -52 -49 -105 l-49 -96 18 -62 c9 -35
16 -63 14 -63 -2 0 3 -18 11 -39 16 -45 16 -44 -101 -124 l-71 -48 -23 -99
c-13 -55 -26 -103 -29 -108 -5 -9 -42 -14 -171 -28 -39 -4 -52 -11 -98 -62
-29 -31 -60 -67 -69 -79 -20 -30 -34 -29 -139 12 -92 36 -108 37 -179 5 -11
-5 -43 -18 -70 -29 l-51 -19 -39 45 c-122 138 -92 122 -260 139 -33 3 -63 10
-66 15 -3 5 -16 54 -29 107 l-23 98 -88 63 c-52 36 -89 69 -89 79 0 9 11 58
24 108 l23 92 -48 93 c-27 51 -49 97 -49 103 1 6 32 45 70 86 l70 75 0 113 c0
98 2 113 18 119 9 3 55 20 102 38 l85 33 46 86 c25 48 51 92 57 98 7 7 41 7
116 -2 l105 -13 88 61 c48 34 90 61 93 62 3 0 43 -27 90 -61z"/>
</g>
</svg>
